<?xml version="1.0" encoding="utf-8"?>
<!-- Generator: Adobe Illustrator 23.0.3, SVG Export Plug-In . SVG Version: 6.00 Build 0)  -->
<svg version="1.1" id="Layer_1" xmlns="http://www.w3.org/2000/svg" xmlns:xlink="http://www.w3.org/1999/xlink" x="0px" y="0px"
	 viewBox="0 0 104.31 121.78" style="enable-background:new 0 0 104.31 121.78;" xml:space="preserve">
<g>
	<g>
		<path d="M28.93,62.37c-0.32,0.63-0.58,1.29-0.83,1.93c-0.25,0.64-0.51,1.29-0.82,1.92l-0.18,0.36c-0.72,1.44-1.4,2.81-2.23,4.16
			c-0.14,0.23-0.28,0.45-0.43,0.67c-0.84,1.3-1.64,2.54-1.42,4.01c0.64-0.3,2.64-0.66,2.66-0.66c0.93-0.13,1.91-0.15,2.91-0.05
			c1.98,0.19,3.86,0.87,5.61,1.54c0.06,0.02,0.14,0.05,0.24,0.07c0.11,0.03,0.21,0.06,0.3,0.09c-0.04-0.07-0.08-0.15-0.12-0.23
			c-0.45-0.87-0.84-2.17-0.12-3.45c0.92-1.62,2.49-2.74,4.01-3.81c0.26-0.18,0.52-0.36,0.77-0.55c0.29-0.21,0.59-0.43,0.88-0.66
			l-0.23-0.53c-0.03-0.03-0.07-0.06-0.09-0.09c-2.44-3.23-5.37-5.4-9.21-6.82C30.34,60.18,29.25,61.73,28.93,62.37z"/>
		<path d="M32.78,60.06c3.43,0.89,6.53,3.34,8.17,6.46c0.24,0.27,0.45,0.6,0.63,0.94l0.03,0.06c0.76-0.64,2.26-1.66,3.54-2.11
			c0.58-0.21,1.22-0.21,1.89-0.01c0-0.07,0.02-0.14,0.05-0.21c1.86-3.48,1.11-6.98,0.13-9.95c-0.17,0-0.31,0.01-0.45,0.04
			c-1.5,0.28-2.67,1.07-3.92,1.9l-0.42,0.28c-0.85,0.57-1.92,1.27-3.1,1.56c-0.57,0.14-1.19,0.23-2,0.3
			c-0.34,0.03-0.68,0.05-1.02,0.07c-0.35,0.02-0.7,0.05-1.04,0.08C34.37,59.56,33.53,59.75,32.78,60.06z"/>
		<path d="M24.41,79c0.04,0.08,0.07,0.14,0.09,0.16c0.4,0.68,0.84,1.36,1.26,2.01c0.68,1.06,1.38,2.16,1.98,3.29
			c0.63,1.21,1.06,2.34,1.32,3.44c0.11,0.48,0.21,0.98,0.3,1.47c0.24,1.28,0.49,2.61,1.09,3.75c0.09,0.18,0.19,0.35,0.3,0.51
			c0.2,0.31,0.48,0.54,0.78,0.77c0.15,0.12,0.31,0.25,0.46,0.39c0.13,0.04,0.28,0.07,0.41,0.11c-0.49-4.32,2.66-7.46,6.58-9.37
			l-0.03-0.05c-0.55-1.07-0.91-2.35-1.22-3.57c-0.18-0.71-0.41-1.32-0.7-1.88c-0.25-0.47-0.55-0.92-0.91-1.36l-0.41-0.49l-0.59-0.2
			c-0.05,0.01-0.11,0.01-0.16-0.02c-0.16-0.07-0.31-0.14-0.47-0.2l-0.06-0.03l-0.16-0.06c-0.03-0.01-0.05-0.03-0.08-0.04
			c-3.88-1.54-7.75-1.11-10.71-0.53c0.1,0.19,0.27,0.53,0.45,0.88C24.09,78.37,24.3,78.77,24.41,79z"/>
		<path d="M62.74,40.05c-1.43-0.35-2.91-0.25-4.47-0.14C57.6,39.95,56.9,40,56.2,40c-2.57,0.03-5.18-0.26-7.77-0.86
			c-2.89-0.66-5.54-1.39-8.09-2.21c-0.4-0.13-0.86-0.3-1.33-0.48c-0.71-0.26-1.49-0.56-2.28-0.78c0.02,0.04,0.04,0.08,0.07,0.12
			c0.23,0.44,0.47,1.11,0.64,1.55c0.06,0.17,0.11,0.31,0.14,0.38c0.37,0.87,0.71,1.75,0.99,2.62c0.63,1.9,1.04,3.79,1.22,5.59
			c0.2,1.97,0.14,3.87-0.19,5.66c-0.16,0.86-0.38,1.7-0.6,2.52c-0.15,0.56-0.31,1.15-0.44,1.73c1.41-0.07,2.42-0.77,3.58-1.58
			c0.17-0.12,0.35-0.24,0.53-0.36c0.86-0.58,3.07-1.97,5.09-2.31c1.29-0.22,2.84,0.99,3.77,1.72l0.05,0.04
			c0.18,0.14,0.41,0.34,0.69,0.57c1.12,0.95,3,2.53,3.86,2.4c0.76-0.12,2.24-1.9,2.79-2.69c0.2-0.28,0.39-0.54,0.59-0.8
			c0.49-0.65,0.95-1.26,1.32-2.06c1.53-3.28,1.68-6.3,1.86-9.81l0.05-0.88C62.74,40.07,62.74,40.06,62.74,40.05z"/>
		<path d="M37.51,97.55c1.51,0.12,3.07,0.23,4.61,0.6c1.32,0.32,2.65,0.93,4.05,1.58c2.21,1.02,4.49,2.08,6.75,1.89
			c-0.52-0.53-1-1.22-1.43-2.05c-0.55-1.07-0.92-2.15-1.12-2.87c-0.53-1.86-0.79-3.56-0.81-5.22c0-0.2,0.02-0.43,0.04-0.68
			c0.05-0.6,0.1-1.29-0.12-1.72c-0.07-0.13-0.16-0.24-0.28-0.31c-0.96-0.59-2.91,0-4.2,0.39c-0.29,0.09-0.55,0.17-0.77,0.22
			c-1.94,0.51-3.4,0.01-4.45-1.55l0,0c-2.71,1.63-6,4.56-6.31,9.22C34.79,97.35,36.17,97.45,37.51,97.55z"/>
		<path d="M65.9,68.54c0.3,0.04,0.6,0.08,0.87,0.16c0.87,0.25,1.73,0.49,2.61,0.58c1,0.1,2.16-0.23,3.19-0.51
			c0.26-0.07,0.52-0.15,0.77-0.21c2.27-0.58,3.87-1.38,5.02-2.49c-0.03-0.19-0.1-0.39-0.2-0.6c-0.29-0.56-0.83-1.09-1.3-1.56
			c-0.16-0.15-0.31-0.3-0.44-0.44c-0.2-0.21-0.4-0.42-0.59-0.63c-0.58-0.61-1.19-1.25-1.74-1.91c-1.54-1.84-2.81-3.74-3.8-5.64
			c-0.18-0.35-0.35-0.7-0.52-1.06c-1.03-2.22-1.81-4.61-2.45-7.55c-0.14-0.64-0.29-1.21-0.45-1.73c0.27,2.66-0.87,5.88-2.07,8.08
			c-1.33,2.44-3.62,5-6.2,5.19c0.38,0.2,0.77,0.37,1.16,0.53c0.41,0.17,0.84,0.35,1.25,0.58c0.28,0.15,0.58,0.27,0.88,0.39
			c0.4,0.15,0.81,0.31,1.16,0.55c0.36,0.24,0.65,0.58,0.86,0.98c0.53,1.02,0.5,2.34,0.4,3.5c-0.02,0.27-0.08,0.57-0.14,0.89
			c-0.15,0.75-0.3,1.53-0.01,2.09c0.14,0.27,0.37,0.47,0.71,0.6C65.17,68.45,65.54,68.5,65.9,68.54z"/>
		<path d="M80.68,67.22c0,1.89-0.56,3.7-1.05,5.08c-0.72,2-1.3,3.84-1.14,6.21c0.08,0.52,0.16,1.06,0.25,1.59
			c0.27,1.13,0.74,2.33,1.49,3.76c0.12,0.22,0.24,0.45,0.36,0.67c1.05,1.91,2.35,4.29,3.82,6.42c1.09,1.58,2.57,3.63,4.33,5.46
			c0.86,0.89,1.89,1.92,3.01,2.81c0.61,0.48,1.06,0.59,1.79,0.77c1.47-2.92,2.2-6.26,2.91-9.49c0.19-0.85,0.37-1.7,0.57-2.54
			c0.64-2.69,1.33-4.71,2.25-6.54c0.53-1.06,1.15-2.08,1.74-3.08l0.23-0.39C94.1,76.57,86.81,72.76,80.68,67.22z"/>
		<path d="M74.03,84.6c0.05-0.53,0.11-1.05,0.18-1.58c0.26-2.02,0.75-4.05,1.46-6.03c0.26-0.73,0.59-1.5,0.94-2.32
			c0.9-2.12,1.91-4.52,2-6.74c-3.13,3.02-8.59,3.47-12.47,2.33c-0.71-0.16-1.41-0.36-2.08-0.61c-0.02,1.86,0.39,3.59,0.83,5.41
			c0.17,0.7,0.34,1.41,0.48,2.14c0.56,2.81-0.67,4.01-2.62,5.53c-0.11,0.09-0.23,0.18-0.34,0.27c0.13,0.35,0.29,0.69,0.46,1.02
			c0.33,0.63,0.73,1.24,1.19,1.8c2.14,2.23,5.29,3.62,8.87,3.91c0.04-0.07,0.09-0.15,0.13-0.22C73.69,87.95,73.85,86.33,74.03,84.6z
			"/>
		<path d="M71.8,91.19c-0.88,0.06-2.52-0.41-3.1-0.59c-1.14-0.35-2.24-0.9-3.26-1.63c-0.98-0.7-1.88-1.56-2.65-2.56
			c-0.08-0.1-0.16-0.23-0.26-0.43c-0.05-0.1-0.11-0.22-0.17-0.34c-0.06-0.12-0.12-0.25-0.19-0.38c-0.27-0.51-0.6-1.03-1.04-1.06
			c-0.86,0.77-1.6,1.66-2.27,2.73c-0.09,0.15-0.18,0.29-0.27,0.44c-0.47,0.77-0.95,1.56-1.71,2.15c-1.12,0.86-2.5,0.4-3.72,0
			c-0.34-0.11-0.66-0.22-0.97-0.29c-0.28-0.07-0.56-0.13-0.86-0.18c-0.05,0.24-0.09,0.48-0.11,0.73c0.01,0.03,0.01,0.07,0.01,0.1
			c-0.07,2.99,0.32,5.34,1.22,7.42c0.11,0.26,0.24,0.52,0.39,0.81c0.31,0.59,0.66,1.18,1,1.75c0.34,0.57,0.7,1.16,1,1.75
			c0.08,0.16,0.16,0.32,0.24,0.48c2.13-0.58,3.53-2.04,5-3.58c0.88-0.92,1.8-1.88,2.89-2.64c1.11-0.77,2.48-1.31,3.81-1.84
			C68.63,93.3,70.53,92.55,71.8,91.19z"/>
		<path d="M71.24,50.94c0.05,0.12,0.1,0.25,0.16,0.37c0.38,0.85,0.78,1.68,1.22,2.46c1.14,2.09,2.48,3.97,3.98,5.57
			c0.36,0.39,0.76,0.77,1.24,1.21c0.59,0.19,1.17,0.38,1.75,0.58c0.03,0,0.06,0,0.08,0.01c7.36,2.78,15.02,3.5,24.27,3.73
			c-0.5-1.72-1.33-3.35-2.13-4.93c-0.47-0.93-0.93-1.87-1.31-2.82c-0.42-1.06-0.92-2.12-1.47-3.11l-0.11-0.21
			c-1.21-2.21-1.88-4.4-2.13-6.43c-0.09-0.73-0.06-1.54,0.01-2.49C89.01,49.61,79.97,51.74,71.24,50.94z"/>
		<path d="M45.74,102.45c0.04-0.02,0.07-0.04,0.11-0.04c0.19-0.11,0.4-0.21,0.62-0.3L46.21,102c-1.42-0.64-2.9-1.29-4.45-1.67
			c-1.51-0.36-3.09-0.46-4.62-0.56c-0.39-0.02-0.78-0.05-1.17-0.08c-0.4-0.03-0.81-0.09-1.21-0.15c-0.57-0.08-1.15-0.17-1.71-0.17
			c-1.99,0-3.47,0.11-5.18,0.61c-1.75,0.52-3.5,1.17-5.18,1.95c-3.3,1.51-6.39,3.48-9.21,5.84c0.7,0.69,1.52,1.28,2.45,1.77
			c1.56,0.81,3.27,1.4,4.92,1.97c2.07,0.71,4.21,1.45,6.1,2.64c1.34,0.84,2.42,1.86,3.31,2.76c1.19-3.17,3.79-5.61,6.57-8.03
			C39.62,106.48,42.61,104.32,45.74,102.45z"/>
		<path d="M20.29,78c-0.09-0.23-0.17-0.45-0.24-0.67c-0.03-0.03-0.06-0.07-0.08-0.11c-0.06-0.11-0.07-0.23-0.05-0.34
			c-0.41-1.61-0.16-3.05,0.75-4.41c0.91-1.36,1.94-2.9,2.81-4.5c0.04-0.07,0.06-0.24-0.16-0.67c-0.32-0.62-0.99-1.42-1.35-1.84
			c-0.09-0.11-0.16-0.19-0.21-0.25c-0.68-0.86-1.44-1.78-2.36-2.71l-0.37-0.37c-1.21-1.19-2.46-2.26-3.73-3.16
			c-1.21-0.86-2.3-1.56-3.31-2.14c-0.15-0.09-0.31-0.19-0.48-0.29c-0.63-0.4-1.34-0.85-1.97-0.83c-0.91,0.03-1.04,0.79-1.12,1.86
			c-0.01,0.13-0.02,0.26-0.03,0.38c-0.1,0.97-0.14,1.97-0.18,2.94C8.1,63.02,8,65.22,7.29,67.29c-1.15,3.36-3.12,6.72-5.69,9.77
			C7.41,74.24,14.27,75.91,20.29,78z"/>
		<path d="M16.73,98.43c3-0.99,6.14-1.59,9.39-1.78l0.01-0.01l0.03,0c0.62-0.15,1.26-0.24,1.89-0.25c-0.58-1.36-0.9-2.84-1.21-4.28
			c-0.09-0.41-0.18-0.82-0.27-1.23c-0.33-1.44-0.86-2.82-1.66-4.35c-0.66-1.28-1.43-2.49-2.23-3.76l-0.31-0.34
			c-1-0.36-2.16-0.67-3.4-1.1c0.01,0,0.03-0.03-0.02-0.05c-3.35-1.07-6.91-1.45-10.39-1.05c-1.74,0.2-3.47,0.58-5.17,1.14
			c-0.18,0.06-0.38,0.11-0.61,0.18c-0.69,0.19-1.54,0.43-1.94,0.8c-0.3,0.27-0.33,0.59-0.11,1.02c0.13,0.26,0.34,0.51,0.52,0.73
			c1.27,1.54,2.43,3.2,3.43,4.94c0.08,0.14,0.16,0.28,0.23,0.43c0.33,0.64,0.6,1.3,0.87,1.94c0.26,0.63,0.53,1.29,0.86,1.91
			c0.1,0.19,0.2,0.37,0.31,0.55c0.18,0.3,0.35,0.6,0.51,0.91c0.48,0.92,0.87,1.88,1.17,2.85l0.04,0.1c0.04,0.08,0.08,0.17,0.11,0.25
			c0.43,1,0.74,2.06,1.04,3.09c0.12,0.4,0.23,0.79,0.35,1.18C11.58,100.14,14.43,99.19,16.73,98.43z"/>
		<path d="M68.42,118.61c0.82-0.8,1.6-1.68,2.35-2.52c0.95-1.07,1.93-2.18,3.03-3.16c2.4-2.14,4.5-3.63,6.6-4.68
			c0.72-0.36,1.51-0.69,2.47-1.04c-0.32-0.58-0.63-1.17-0.94-1.76c-1.88-3.62-3.37-7.06-4.54-10.52l-0.3-0.89
			c-0.79-2.29-1.59-4.66-1.96-7.06c-0.15,1.11-0.34,2.1-0.67,3.06c-0.57,1.65-1.86,2.99-4.07,4.24c-0.61,0.34-1.26,0.65-1.88,0.94
			c-0.25,0.12-0.51,0.24-0.76,0.36c-1.35,0.66-1.82,2.82-2.16,4.4c-0.05,0.22-0.09,0.42-0.14,0.61c-0.5,2.12-0.81,4.32-0.94,6.53
			c-0.24,4.13,0.19,8.6,1.27,13.28C66.69,120.02,67.56,119.44,68.42,118.61z"/>
		<path d="M57.03,108.78l0.17-0.47c0.9-2.59,1.83-5.26,3.3-7.61c-0.31,0.31-0.63,0.62-0.95,0.91c-1.11,1.01-2.62,2.2-4.49,2.47
			c-1.62,0.23-3.26,0.04-5.16-0.62c-6.01,4.25-10.44,10.55-12.82,18.24c1.95,0.34,3.84-0.44,5.68-1.2c0.4-0.17,0.8-0.33,1.2-0.48
			c2.62-0.99,5.16-1.41,7.56-1.25c1.61,0.11,3.05,0.47,4.26,0.83C55.47,115.53,55.87,112.09,57.03,108.78z"/>
		<path d="M40.03,34.12l0.46,0.15c2.36,0.78,4.8,1.59,7.26,2.12c0.47,0.1,0.96,0.2,1.56,0.29c3.83-2.5,6.9-5.85,9.88-9.08
			c0.72-0.78,1.44-1.56,2.17-2.33c2.55-2.7,4.41-5.93,6.22-9.06c0.87-1.52,1.7-3.01,2.47-4.45c0.15-0.27,0.28-0.56,0.42-0.85
			c0.18-0.38,0.37-0.78,0.58-1.15c-1.62-0.17-3.34,0.04-5,0.23c-1.04,0.12-2.12,0.25-3.16,0.28c-3.48,0.11-7.01-0.5-10.22-1.75
			C50.99,20.24,46.75,28.85,40.03,34.12z"/>
		<path d="M22.16,58.82c0.47,0.72,0.91,1.48,1.31,2.25c0.22,0.42,0.43,0.86,0.63,1.3c0.11,0.24,0.2,0.49,0.3,0.75
			c0.12,0.33,0.25,0.67,0.41,0.97c0.04,0.08,0.09,0.16,0.14,0.24c0.13,0.21,0.2,0.22,0.2,0.22c0.06,0,0.18-0.29,0.24-0.42
			c0.04-0.09,0.08-0.18,0.12-0.27c0.07-0.15,0.15-0.29,0.23-0.44c0.24-0.45,0.48-0.92,0.63-1.4c0.19-0.62,0.38-1.22,0.76-1.83
			c0.88-1.4,2.18-2.44,3.66-2.93c1.14-0.38,2.26-0.49,3.5-0.57c0.41-1.17,0.87-2.56,1.25-4.03c0.69-4.33-0.09-8.96-2.2-13.01
			c-0.6-1.14-1.3-2.24-2.08-3.26c-1.02,0.76-1.86,1.84-2.69,2.88c-0.65,0.82-1.31,1.66-2.05,2.35c-1.63,1.51-3.52,2.9-5.78,4.26
			c-0.75,0.45-1.52,0.89-2.27,1.32c-1.77,1.01-3.59,2.05-5.2,3.28c1.23,0.68,2.42,1.48,3.53,2.38
			C18.86,54.5,20.67,56.52,22.16,58.82z"/>
		<path d="M55.95,37.98c-0.04,0.01-0.08,0.02-0.11,0.03c1.08,0.03,2.2,0.02,3.38-0.04c0.88-0.04,1.89-0.08,2.88,0.01
			c0.03-0.05,0.08-0.08,0.14-0.09c2.31-0.39,4.11,1.26,5.02,2.93c0.16,0.29,0.3,0.6,0.42,0.91c0.51,1.32,0.86,2.71,1.21,4.05
			c0.1,0.4,0.21,0.81,0.32,1.21c7.94-2.73,14.79-7.41,21.42-11.93c1.23-0.84,2.46-1.68,3.7-2.51c-0.09-0.08-0.19-0.17-0.29-0.25
			c-1.14-0.9-2.35-1.56-3.63-2.26c-0.31-0.17-0.61-0.34-0.92-0.51c-3.82-2.14-6.78-4.78-8.81-7.85c-0.28-0.43-0.56-0.88-0.84-1.39
			C73.55,28.28,65.08,34.56,55.95,37.98z"/>
		<path d="M34.21,32.41c0.27-0.45,0.42-0.98,0.56-1.5c0.1-0.37,0.21-0.76,0.36-1.11c2.08-4.86,2.09-10.81,1.83-16
			c-0.12-2.36-0.39-4.81-0.81-7.28c-0.2-1.21-0.45-2.46-0.73-3.71c-0.04-0.16-0.07-0.36-0.1-0.57c-0.08-0.52-0.18-1.12-0.4-1.52
			c-0.05-0.09-0.1-0.17-0.16-0.23c-0.17-0.18-0.38-0.25-0.62-0.22c-0.63,0.09-1.33,0.87-1.59,1.39c-1.12,2.22-1.59,4.77-1.38,7.37
			c0.06,0.74,0.1,1.49,0.15,2.24c0.06,0.97,0.11,1.98,0.21,2.95c0.12,1.19-0.01,2.24-0.16,3.35c-0.04,0.28-0.07,0.57-0.11,0.87
			c-0.15,1.32-0.15,2.71-0.16,4.05c0,0.88-0.01,1.79-0.05,2.67c-0.14,2.73-0.51,5.3-1.12,7.65c0,0,0,0.01,0,0.01
			c0.15-0.03,0.36-0.07,0.53-0.11c0.49-0.1,0.83-0.17,0.95-0.18c0.43-0.03,0.86,0.08,1.23,0.18C33.33,32.9,33.83,33.04,34.21,32.41z
			"/>
		<path d="M85.16,67.8c-0.05-0.09-0.18,0-0.13,0.09C85.07,67.98,85.21,67.89,85.16,67.8z"/>
	</g>
	<g>
		<path d="M65.92,43.63l-0.07-1.04c-0.45-0.85-1-1.54-1.64-2.05c-0.02-0.01-0.05-0.02-0.08-0.03c0.33,3.13,0.51,5.96-0.46,8.66
			c-0.51,1.43-1.21,2.75-2.06,3.93c-0.79,1.09-1.73,2.01-2.87,2.81c-0.49,0.34-1.03,0.67-1.63,1c1.29,0.5,3.41-0.57,4.33-1.31
			c1.06-0.86,1.97-2,2.62-3.28c0.86-1.69,1.43-3.12,1.79-4.52c0.32-1.26,0.24-2.29,0.14-3.48C65.96,44.09,65.94,43.86,65.92,43.63z"
			/>
		<path d="M52.18,71.02l-0.02-0.05c-0.55-1.05-2.24-3.47-4.29-4.2c-0.39-0.14-0.86-0.14-1.31-0.07c0.17,0.22,0.28,0.48,0.41,0.73
			c0.61,1.18,0.65,2.58,0.12,3.85c-0.03,0.38-0.14,0.78-0.32,1.16c0.13,0.04,0.25,0.1,0.38,0.16c0.63,0.1,1.23,0.49,1.63,1.04
			c1.29,0.1,2.77-0.52,3.59-1.49C52.32,71.75,52.34,71.33,52.18,71.02z"/>
		<path d="M61.9,77.5c-0.06-1.06-0.35-2.11-0.64-3.13c-0.2-0.71-0.4-1.44-0.52-2.17c-0.17-0.98-0.22-1.97-0.16-3.11l0-0.01
			c-0.04-0.08-0.03-0.19,0.02-0.26c0.02-0.38,0.06-0.77,0.11-1.18l0.03-0.27c0.16-1.43,0.32-2.78-0.24-4.09
			c-1.2,1.64-2.89,2.77-4.55,3.74c-1.27,0.75-2.76,1.53-4.42,1.44c0.52,0.64,0.98,1.32,1.31,1.96c0.13,0.25,0.23,0.48,0.31,0.69
			c0.3,0.79,0.34,1.71,0.13,2.89c-0.03,0.14-0.08,0.31-0.14,0.48c-0.09,0.26-0.18,0.55-0.16,0.75c0.01,0.08,0.03,0.16,0.06,0.25
			c0.04,0.1,0.09,0.22,0.15,0.34c0.18,0.35,0.44,0.71,0.65,1c0.08,0.12,0.16,0.22,0.22,0.31c0.35,0.52,1.03,1.07,2.09,1.68
			c1.03,0.59,3.67,1.53,4.86,0.45C61.66,78.69,61.94,78.12,61.9,77.5z"/>
		<path d="M49.12,76.2c-0.34,0.86-1.04,1.49-1.89,1.7c-0.69,0.17-1.41,0.05-2.02-0.34c0.26,0.48,0.59,0.85,0.96,1.09
			c1.02,0.64,2.23,0.7,3.31,0.16c0.03-0.02,0.08-0.05,0.13-0.06c0.83-0.45,1.5-1.22,1.85-2.17c0.39-1.04,0.78-2.23,0.84-3.35
			c-0.79,0.93-1.91,1.41-3.15,1.33C49.34,75.1,49.34,75.67,49.12,76.2z"/>
		<path d="M92.45,102.24c0.09-0.09,0.16-0.18,0.21-0.26c0.1-0.18,0.08-0.27,0.04-0.33c-0.09-0.17-0.37-0.32-0.68-0.47
			c-0.23-0.12-0.47-0.24-0.68-0.4c-0.57-0.45-1.09-0.97-1.59-1.47l-0.37-0.37c-1.93-1.91-3.75-4.2-5.41-6.83
			c-1.68-2.67-2.89-4.75-3.92-6.73c-0.21-0.41-0.42-0.82-0.62-1.23c-0.87-1.77-1.73-3.86-1.69-6.18c-0.01,0.03-0.03,0.07-0.04,0.1
			c-0.08,0.21-0.16,0.4-0.19,0.55c-0.4,1.64-0.83,3.44-1.03,5.12c-0.19,1.56,0.73,3.68,1.15,5.22c0.53,1.94,1.21,3.84,1.9,5.73
			l0.14,0.38c1.32,3.66,2.87,7.3,4.61,10.83c1.73-0.61,3.48-1.21,5.17-1.91C90.88,103.4,91.89,102.82,92.45,102.24z"/>
		<path d="M43.79,73.57c0.02,0.01,0.04,0.02,0.05,0.03c0.3-0.4,0.65-0.6,1.03-0.82c0.19-0.11,0.38-0.21,0.59-0.36
			c1.41-0.96,1.23-3.58,0.48-5.02c-0.09-0.17-0.19-0.33-0.29-0.46c-1.16,0.38-2.31,1.3-3.32,2.11c-0.31,0.25-0.6,0.48-0.88,0.68
			c-0.26,0.19-0.56,0.4-0.88,0.61c-1.35,0.92-3.03,2.06-3.39,3.44C38.78,72.24,42,72.7,43.79,73.57z"/>
		<path d="M44.79,85.83c1.9-0.56,3.37-0.74,4.77-0.58c1,0.11,1.79,0.28,2.5,0.52c0,0,0.42,0.15,0.5,0.18
			c-0.5-0.47-1.05-1.27-1.65-2.43c-0.1-0.2-0.19-0.38-0.26-0.52c-0.11-0.22-0.2-0.56-0.3-0.91c-0.12-0.43-0.26-0.92-0.45-1.29
			c-0.15-0.29-0.31-0.46-0.49-0.53c-0.1-0.04-0.44,0.07-0.66,0.15c-0.2,0.06-0.37,0.12-0.48,0.13c-0.36,0.03-0.73,0.02-1.11-0.05
			c-0.37-0.07-0.69-0.21-1.01-0.36c-0.51-0.23-0.94-0.44-1.41-0.16c-0.12,0.07-0.24,0.17-0.36,0.3c-1.28,1.39-1.77,3.61-1.96,5.26
			C43.06,86.01,43.86,86.11,44.79,85.83z"/>
		<path d="M55.34,85.69c0.49-0.52,0.87-1.13,1.25-1.73c0.38-0.61,0.78-1.24,1.29-1.78c0.5-0.53,1.03-1.02,1.62-1.49
			c-1.2,0.17-2.85-0.54-3.49-0.91c-1.13-0.64-2.55-1.73-3.15-2.89l0,0c-0.06-0.11-0.1-0.13-0.11-0.13
			c-0.14,0.01-0.39,0.63-0.49,0.87c-0.07,0.17-0.12,0.3-0.17,0.38c-0.37,0.62-0.84,1.16-1.39,1.58l-0.01,0.01
			c0,0.01,0.01,0.02,0.01,0.03c0.05,0.22,0.11,0.47,0.14,0.73l0.06,0.3c0.3,0.79,0.65,1.72,1.09,2.56c0.65,1.25,1.41,2.17,2.39,2.9
			C54.78,86.09,55.09,85.95,55.34,85.69z"/>
		<path d="M59.84,61.97c-1.79-0.56-3.62-1.41-5.45-2.53c-0.11,0-0.2-0.05-0.25-0.15c0-0.01-0.01-0.01-0.01-0.02
			c-0.62-0.39-1.22-0.8-1.8-1.23c-0.26-0.19-0.52-0.4-0.8-0.62c-0.76-0.61-1.62-1.3-2.52-1.63c0.03,0.05,0.06,0.11,0.09,0.17
			c1.67,3.21,0.65,7.13-0.74,9.5c-0.01,0.01-0.02,0.03-0.02,0.04c0.74,0.36,1.53,0.95,2.28,1.73c0.06-0.04,0.13-0.05,0.22-0.05
			c2.65,0.19,4.71-1.61,6.71-3.35C58.33,63.15,59.07,62.5,59.84,61.97z"/>
		<path d="M37.17,74.79c-0.13,0.31,0.04,0.71,0.21,1.09c0.03,0.05,0.05,0.11,0.08,0.16c0.29,0.55,0.69,1.04,1.09,1.51
			c0.25,0.31,0.52,0.62,0.75,0.95c0.12,0.17,0.23,0.35,0.33,0.55c0.43,0.83,0.64,1.76,0.84,2.66l0.04,0.19
			c0.2,0.88,0.44,1.58,0.73,2.15c0.09,0.16,0.18,0.32,0.27,0.46c0.12-1.88,0.97-3.7,2.42-5.16c0.02-0.04,0.04-0.07,0.08-0.09
			l0.13,0.05l-0.08-0.08c0.1-0.1,0.21-0.2,0.32-0.29c0.02-0.02,0.04-0.03,0.06-0.04c-0.33-0.34-0.61-0.72-0.83-1.13
			c-0.07-0.13-0.13-0.27-0.19-0.41c-0.34-0.86-0.31-1.95,0.1-2.92c0.03-0.06,0.05-0.12,0.08-0.17c-1.37-0.59-3.08-0.73-4.8-0.38
			c-0.64,0.13-1.13,0.36-1.48,0.68C37.25,74.64,37.2,74.71,37.17,74.79z"/>
		<path d="M102.39,73.65c0.92-1.86,1.83-3.69,1.92-5.83c0.01-0.33-0.08-1.16-0.33-1.6c-0.01-0.02-0.02-0.04-0.04-0.06
			c-0.04-0.06-0.08-0.11-0.12-0.14c-0.09-0.07-0.23-0.07-0.36-0.08c-2.57-0.07-4.99-0.29-7.56-0.53l-0.37-0.03
			c-3.12-0.29-6.29-0.66-9.41-1.1c-2.65-0.37-4.85-1.27-7.34-2.08c0.48,0.15,1.39,1.93,1.79,2.39c0.71,0.8,1.45,1.57,2.29,2.24
			c1.82,1.46,3.91,2.51,5.95,3.61c4,2.15,8.27,3.75,12.65,4.94C101.75,74.86,102.09,74.25,102.39,73.65z"/>
		<path d="M18.75,60.53c0.56,0.57,1.06,1.21,1.54,1.83c0.45,0.57,0.91,1.17,1.42,1.7c0.68,0.7,1.36,1.53,1.87,2.28l0.03,0.05
			c0.03,0.05,0.05,0.12,0.08,0.2c0.03,0.08,0.06,0.16,0.1,0.23c0.04,0.07,0.06,0.09,0.06,0.09c0.03-0.03,0.12-0.32,0.14-0.61
			c0.02-0.41-0.14-0.82-0.3-1.22c-0.04-0.1-0.08-0.2-0.12-0.29c-0.27-0.72-0.58-1.44-0.92-2.13c-0.1-0.2-0.2-0.4-0.3-0.61
			c-1.1-2.12-2.51-4.09-4.18-5.88c-0.89-0.95-1.87-1.86-2.91-2.69l-0.08-0.07c-2.33-1.9-2.87-2.15-3-2.18
			c-1.18,0.94-2.14,1.92-2.92,2.99c0.02,0,0.03,0,0.05,0.01c0.35-0.11,0.75,0.05,1.1,0.22c1.64,0.8,2.93,1.55,4.04,2.37
			C15.99,57.95,17.43,59.2,18.75,60.53z"/>
		<path d="M20.32,80.8c0.1,0.04,0.28,0.08,0.5,0.14c0.34,0.09,0.65,0.17,0.89,0.26c-0.28-0.47-0.51-0.87-0.71-1.25
			c-0.07-0.14-0.14-0.28-0.21-0.42c-0.12-0.19-1.43-0.46-1.92-0.56c-0.24-0.05-0.44-0.09-0.54-0.12c-1.1-0.32-1.94-0.55-2.72-0.74
			c-2.17-0.55-3.96-0.86-5.63-0.98c-1.95-0.14-3.78-0.02-5.43,0.37c-0.83,0.2-1.7,0.49-2.66,0.9c-0.65,0.28-1.05,0.6-1.34,1.08
			c-0.16,0.27-0.31,0.6-0.46,1.08c-0.1,0.32-0.12,0.58-0.03,0.74c0.12,0.22,0.45,0.26,0.88,0.08c0.37-0.15,0.74-0.31,1.1-0.48
			c0.52-0.23,1.05-0.47,1.6-0.66c1.76-0.6,3.62-0.98,5.53-1.12C12.83,78.83,16.68,79.41,20.32,80.8z"/>
		<path d="M49.27,103.19c-0.15-0.05-0.33-0.14-0.54-0.25c-0.23-0.11-0.48-0.24-0.59-0.24c-0.66-0.02-1.18,0.41-1.69,0.84
			c-0.17,0.14-0.34,0.28-0.5,0.4c-0.88,0.63-1.81,1.3-2.73,2c-1.74,1.34-3.37,2.73-4.86,4.14c-2.58,2.44-5.01,4.9-6.34,8.12
			c0.31,0.3,0.61,0.59,0.92,0.9l0.26,0.26c1.17,1.15,2.25,1.92,3.3,2.33C38.12,114.5,42.77,107.79,49.27,103.19z"/>
		<path d="M63.47,108.47c0.08-2.1,0.36-4.21,0.84-6.29l0.11-0.48c0.27-1.21,0.55-4.35,1.65-5.05c-3.88,2.58-5.63,7.68-7.06,11.88
			c-1.26,3.69-1.36,7.25-1.44,10.7c0.52,0.16,1.04,0.33,1.57,0.5c0.47,0.15,6.5,1.2,6.32,0.75
			C63.99,116.84,63.31,112.7,63.47,108.47z"/>
		<path d="M29.82,98.95c-0.21-0.17-0.41-0.35-0.61-0.52L28,98.39c-0.04,0.02-0.08,0.04-0.13,0.04c-3.26,0.19-6.37,0.75-9.24,1.64
			l-0.08,0.02c-2.7,0.84-5.76,1.8-7.53,4.12c0.21,0.62,0.42,1.13,0.64,1.6c0.04,0.08,0.08,0.17,0.12,0.25
			c0.31,0.6,0.69,1.16,1.13,1.68C17.54,103.28,23.37,100.25,29.82,98.95z"/>
		<path d="M96.56,43.36c0.29-2.79,0.77-6.46-0.64-9.03c-0.2-0.37-0.44-0.72-0.7-1.04c-4.43,3.45-9.05,6.69-13.98,9.39
			c-2.09,1.15-4.24,2.2-6.45,3.12c-1.06,0.44-2.12,0.86-3.2,1.24c-1.78,0.63-2.13,0.61-1.47,2.43C79.6,50.11,88.74,48,96.56,43.36z"
			/>
		<path d="M78.35,18.97c-0.96-1.84-1.61-3.78-2.65-5.58c-0.08-0.13-0.17-0.22-0.27-0.28c-0.56-0.95-1.15-1.63-1.82-2.12
			c-0.33-0.15-0.68-0.28-1.07-0.39c-0.22,0.71-0.6,1.38-0.96,2.04c-0.08,0.15-0.17,0.3-0.25,0.45c-0.73,1.35-1.6,2.73-2.66,4.23
			c-1.9,2.69-3.51,4.93-5.05,7.05c0,0.07-0.02,0.15-0.08,0.23c-0.35,0.45-0.71,0.91-1.07,1.36c-1.58,2-3.39,4-5.54,6.1l-0.56,0.55
			c-0.75,0.74-1.52,1.51-2.33,2.19c-0.54,0.45-1.15,0.83-1.74,1.2c-0.59,0.37-1.1,0.8-1.69,1.18c0.65-0.01,1.29-0.02,1.94-0.03
			c0.39-0.01,0.79-0.01,1.17-0.12c0.95-0.28,1.85-1,2.75-1.43c1.24-0.58,2.47-1.18,3.67-1.83c2.36-1.27,4.64-2.69,6.83-4.24
			c2.15-1.54,4.2-3.21,6.14-5.01C73.67,23.99,78.64,19.53,78.35,18.97z"/>
		<path d="M33.26,36.88c0.29,0.4,0.53,0.8,0.8,1.31c0.15,0.29,0.3,0.59,0.45,0.91c0.92,1.91,1.56,3.75,2.01,5.8
			c0.36,1.61,0.67,3.19,0.52,4.79c-0.06,0.65-0.18,1.32-0.29,1.96c-0.07,0.39-0.14,0.79-0.2,1.18c-0.06,0.38-0.19,0.76-0.32,1.12
			c-0.07,0.21-0.15,0.41-0.21,0.62l-0.13,0.45c-0.12,0.44-0.25,0.89-0.4,1.33c0.16-0.01,0.38,0.01,0.68,0.04
			c0.1,0.01,0.19,0.02,0.23,0.02c0.37,0,0.66-0.02,0.7-0.26c0.15-0.83,0.37-1.65,0.59-2.45c0.28-1,0.56-2.04,0.69-3.1
			c0.3-2.45,0.15-5.06-0.45-7.74c-0.27-1.22-0.65-2.5-1.11-3.79c-0.22-0.61-0.47-1.24-0.73-1.87c-0.02-0.05-0.06-0.16-0.11-0.31
			c-0.13-0.35-0.32-0.89-0.48-1.2c-0.08-0.16-0.12-0.19-0.13-0.19c-1.27-0.26-2.27-0.21-3.05,0.18c0.21,0.17,0.5,0.53,0.89,1.11
			L33.26,36.88z"/>
		<path d="M37.49,33.76c0.41,0.1,0.74,0.16,0.83,0.13c0.9-0.26,2.12-1.96,2.75-2.65c1.69-1.84,3.16-3.89,4.39-6.07
			c2.87-5.07,4.46-10.77,5.34-16.5l-0.07-0.03c-0.08-0.03-0.17-0.06-0.25-0.1c-2.2-0.96-4.54-2.54-6.52-3.91
			c-1.05-0.72-1.93-1.67-2.9-2.47L40.98,2.1C40.3,1.54,39.5,0.9,38.66,0.4c-0.97-0.25-1.83-0.39-2.6-0.4
			c1.43,4.27,2.19,8.89,2.25,13.76c0.03,2.29-0.1,4.65-0.37,7.01c-0.5,4.24-1.23,7.46-2.44,10.78c-0.05,0.15-0.1,0.32-0.15,0.5
			c-0.09,0.32-0.19,0.61-0.25,0.93C35.07,33.08,36.52,33.53,37.49,33.76z"/>
	</g>
</g>
</svg>
