<?xml version="1.0" encoding="utf-8"?>
<!-- Generator: Adobe Illustrator 23.0.3, SVG Export Plug-In . SVG Version: 6.00 Build 0)  -->
<svg version="1.1" id="Layer_1" xmlns="http://www.w3.org/2000/svg" xmlns:xlink="http://www.w3.org/1999/xlink" x="0px" y="0px"
	 viewBox="0 0 167.95 137.05" style="enable-background:new 0 0 167.95 137.05;" xml:space="preserve">
<g>
	<path d="M93.06,121.83c-2.22,0.97-4.85,3.24-7.34,2.97c-0.2-0.02-0.41-0.06-0.57-0.19c-0.9-0.76,5.68-5.19,6.54-5.9
		c3.06-2.52,6.05-5.12,9.02-7.74c5.85-5.16,11.62-10.4,17.75-15.23c5.58-4.39,11.53-8.26,17.35-12.32c0.08,0.07,0.17,0.13,0.26,0.16
		c8.72,3.43,3.91,13.72,0.52,19.26c-5.43,2.37-10.88,4.71-16.43,6.76c-6.15,2.27-12.05,5.17-17.95,8
		C99.18,119.05,96.14,120.49,93.06,121.83z"/>
	<path d="M22.96,86.28c0.21-1.86,0.46-3.73,0.94-5.55c0.53-2.05,1.26-4.46,2.79-6c0.82-0.82,1.7-1.28,2.88-1.15
		c0.38,0.04,2.36,0.54,3.63,0.91c5.46,4.6,10.83,9.34,15.74,14.52c4.66,4.92,9.07,10.15,12.64,15.93c1.97,3.18,3.81,6.47,5.28,9.91
		c0.92,2.15,1.89,4.35,2.42,6.64c0.97,4.19-4.23,0.58-5.53-0.39c-3.65-2.72-7.41-5.28-11.26-7.69c-7.83-4.91-16-9.25-24.26-13.39
		c-0.72-0.36-1.46-0.71-2.2-1.06c-0.42-1.76-1.54-3.54-2.15-5.11C22.92,91.36,22.66,88.98,22.96,86.28z"/>
	<g>
		<path d="M74.21,121c0.8-0.29,1.6-0.44,2.24-0.43c2.11,0.03,3.97,1.38,5.47,2.92c0.6,0.61,1.23,1.44,0.99,2.38
			c-0.15,0.62-0.68,1.07-1.21,1.22c-0.83,0.22-2.21,0.1-3.06,0.03c-1.17-0.1-2.34-0.18-3.51-0.25c-0.31-0.02-0.58-0.11-0.82-0.23
			c-0.7-0.02-1.41-0.03-2.12,0c-0.78,0.04-2.16-0.8-2.06-1.9c0.04-0.42,0.79-1.28,1.06-1.6C72.07,122.09,73.04,121.43,74.21,121z"/>
		<path d="M114.29,128.02c-0.6,2.4-1.36,4.73-2.11,7.09c-1.1,3.46-4.74,1.43-7.07,0.47c-3.58-1.49-7.25-2.76-10.96-3.92
			c-1.87-0.58-3.75-1.13-5.63-1.67c-0.71-0.2-4.19-0.67-4.34-1.42c-0.35-1.77,4.28-2.61,5.22-2.93c2.65-0.88,5.28-1.86,7.88-2.9
			c5.2-2.08,10.3-4.43,15.33-6.9C114.33,119.72,115.39,123.63,114.29,128.02z"/>
		<path d="M47.48,112.82c0.74-0.19,4.05,2.56,4.77,3.02c1.59,1.01,3.18,2.01,4.77,3.02c3.02,1.91,5.98,3.81,9.18,5.4
			c0.39,0.19,0.82,0.43,0.95,0.85c0.32,0.99-4.51,1.08-5.36,1.24c-2.3,0.44-4.55,1.09-6.76,1.87c-2.04,0.72-4,1.59-6.01,2.38
			c-4.1,1.61-5.61-3.24-6.89-5.88C39.42,119.07,41.51,114.37,47.48,112.82z"/>
	</g>
	<g>
		<path d="M143.31,76.7c1.81-4.91,2.81-10.92-0.08-15.55c-2.06-3.31-5.15-5.63-8.78-6.09c2.08-2.47,3.96-5.06,5.35-7.98
			c0.93-1.94,2.42-3.87,3.5-5.75c0.93-1.62,2.01-3.4,3.68-4.33c1.65-0.92,3.3-0.29,5.01,0.52c3.2,1.51,5.78,4.11,6.69,7.6
			c0.53,2.04,0.5,4.17,0.37,6.27c-0.14,2.37-0.41,4.75-1.11,7.01C155.62,65.79,149.47,71.97,143.31,76.7z"/>
		<path d="M108.98,38.58c1.34-4.01,2.62-8.03,3.79-12.1c0.6-2.06,1.23-4.12,1.67-6.22c0.37-1.76,0.27-3.71,0.81-5.42
			c0.96-2.99,4.12-4.6,7.14-4.26c3.28,0.37,6.38,1.89,9.08,3.72c4.97,3.38,10.49,9.09,11.12,15.39c0.97,9.68-4.61,17.07-10.82,23.86
			C133.23,40.96,119.94,32.37,108.98,38.58z"/>
		<path d="M105.71,36.59c-6.46-9.32-19.82-9.79-27.05-1.24c-0.32-2.29-0.67-4.59-1.06-6.88c-0.79-4.72-1.29-9.51-2.62-14.13
			c-0.83-2.88-2.44-8.09-0.7-10.88c1.05-1.68,3.69-2.51,5.49-2.92c4.21-0.97,8.83-0.52,13.01,0.43c5.53,1.26,17.3,4.64,18.06,11.57
			c0.7,6.41-1.87,13.58-3.73,19.61C106.65,33.63,106.18,35.11,105.71,36.59z"/>
		<path d="M6.78,63.07c6.52-2.12,12.38,1.16,17.54,5.17c-5.75,0.22-10.03,6.3-10.43,11.93c-0.14,1.99-0.01,3.95,0.38,5.83
			c0.06,0.65,0.13,1.3,0.23,1.95c0.32,1.95,0.52,4.18,1.46,5.97c0.1,0.19,0.21,0.41,0.33,0.65c-4.61-2.29-8.99-4.97-12.13-9.05
			c-2.54-3.3-4.65-7.58-4.06-11.91C0.64,69.68,2.57,64.44,6.78,63.07z"/>
		<path d="M74.59,32.92c-0.67-0.46-1.36-0.87-2.1-1.2c-3.42-1.5-7.4-2.4-11.12-1.54c-3.35,0.77-6.49,2.39-8.95,4.77
			c-1.24,1.19-2.29,2.56-3.13,4.05c-0.82,1.45-1.21,3.12-2.34,4.36c-0.49-0.9-0.96-1.8-1.48-2.69c-1.54-2.65-2.62-5.37-4.15-8.01
			c-0.42-0.73-0.85-1.47-1.36-2.15c-0.67-0.89-1.47-1.68-2.17-2.55c-2.91-3.59-5.22-8.13-3.3-12.64c1.64-3.84,5.33-6.87,9.17-8.46
			c5.83-2.41,13.03-3.98,19.34-2.47c7.46,1.78,8.23,13.81,9.74,20.17C73.41,27.34,74.02,30.12,74.59,32.92z"/>
		<path d="M144.05,77.36c2.3-1.78,4.55-3.64,6.68-5.64c2.1-1.97,4.15-5.31,7.2-5.67c2.62-0.31,6.35,0.1,8,2.41
			c1.38,1.94,1.84,4.83,1.99,7.14c0.29,4.59-0.89,10.12-4.61,13.19c-4.94,4.07-10.82,6.77-16.68,9.32
			c2.62-4.22,4.57-8.79,3.51-13.87C149.44,80.93,147.07,78.4,144.05,77.36z"/>
		<path d="M44.77,44.88c-0.21-0.01-0.43-0.02-0.63-0.01c-5.22,0.19-11.61,2.76-14.95,6.92c-3.71,4.63-4.86,10.72-2.07,15.89
			c-2.69-2.06-5.45-3.94-8.53-5.45c-3.37-1.66-6.76-4.63-7.31-8.43c-0.52-3.58-0.56-7.17,0.14-10.74
			c1.38-7.01,5.59-13.6,12.66-15.88C34.13,23.95,40.74,36.16,44.77,44.88z"/>
	</g>
	<path d="M79.67,46.42c6.07-7.14,17.79-6.02,22.37,2.12c-0.3,0.9-0.6,1.8-0.9,2.7c-3.81,11.38-7.61,22.77-11.45,34.14
		c-3.75,11.11-8.23,22.18-11.22,33.5c-0.07,0-0.14-0.02-0.19-0.04c-1.69-0.71-0.17-6.21,0.09-7.45c0.83-3.88,0.77-7.82,1.21-11.8
		C81.55,81.8,81.52,64.09,79.67,46.42z"/>
	<path d="M116.27,95.67c-5.9,4.7-11.63,9.59-17.42,14.43c-2.94,2.45-5.88,4.9-8.87,7.29c-2.04,1.63-4.86,4.83-7.44,5.47
		c-0.09-0.13,1.55-2.15,1.68-2.28c1.08-1.16,2.1-2.37,3.09-3.6c1.92-2.39,3.69-4.89,5.43-7.41c5.29-7.63,10.37-15.41,15.7-23.01
		c5.64-8.05,11.5-16.01,18.15-23.27c0,0,0,0,0,0c5.01-1.95,8.26,5.63,8.98,9.41c0.63,3.27,0.61,6.37-0.06,9.61
		C129.05,86.67,122.39,90.8,116.27,95.67z"/>
	<path d="M81.29,120.27c-0.5-0.24-0.46-0.95-0.34-1.49c1.4-6.07,3.73-11.96,5.73-17.86c4.15-12.19,8.25-24.41,12.64-36.52
		c1.81-4.98,3.63-9.96,5.41-14.95c9.29-4.75,19.55,0.96,20.48,11.19c-0.88,0.96-1.74,1.91-2.55,2.87
		c-5.61,6.64-10.77,13.63-15.67,20.8c-5.24,7.67-10.27,15.48-15.51,23.16c-1.88,2.76-3.79,5.51-5.89,8.12
		C85.04,116.3,82.2,120.7,81.29,120.27z"/>
	<path d="M72.21,121.2c-0.15,0.03-0.29-0.02-0.41-0.11c-0.1-0.07-0.18-0.16-0.26-0.25c-2.96-3.56-4.09-8.92-6.4-12.97
		c-4.1-7.18-9.5-13.67-15.3-19.53c-5.02-5.08-10.36-9.81-15.87-14.35c-1.46-4.71,0.27-10.6,3.17-14.39
		c2.2-2.87,7.02-7.44,11.04-6.58c0.05,0.01,0.27,0.09,0.54,0.19c3.14,6.85,6.29,13.7,9.26,20.62c3.67,8.54,7.09,17.19,9.83,26.07
		c1.37,4.43,2.57,8.92,3.53,13.46c0.52,2.46,1.14,4.33,1.28,6.91C72.64,120.64,72.58,121.13,72.21,121.2z"/>
	<path d="M74.49,118.53c-1.2-2.16-1.22-5.67-1.79-8.13c-1.08-4.59-2.35-9.14-3.77-13.64c-2.82-8.91-6.25-17.6-10.01-26.15
		c-2.72-6.17-5.26-12.42-8.14-18.52c-0.03-0.07-0.06-0.13-0.1-0.19c3.22-4.68,8.09-7.82,13.9-7.93c2.3,0.3,4.74-0.08,7.07,0.17
		c1.83,0.2,3.32,0.88,4.88,1.66c1.36,9.64,1.61,19.58,1.68,29.28c0.05,7.32-0.17,14.65-0.66,21.96c-0.45,6.67-0.4,13.96-2.21,20.42
		C75.19,117.97,74.98,118.35,74.49,118.53z"/>
	<g>
		<path d="M142.73,88.64c-0.35-1.8-1.34-3.34-2.48-4.72c-1.15-1.39-1.88-1.38-2.17-2.1c0.5-0.36,1-0.71,1.5-1.08
			c0.48-0.35,0.96-0.71,1.44-1.07c4.4-0.75,6.74,4.67,6.51,8.36c-0.14,2.25-0.74,4.46-1.46,6.59c-0.16,0.48-1.06,3.52-1.73,4.85
			c-0.55,0.24-1.1,0.48-1.65,0.72c-0.97,0.42-1.95,0.85-2.92,1.28C141.99,97.5,143.65,93.34,142.73,88.64z"/>
		<path d="M21.01,73.65c1.94-2.55,3.82-2.5,6.62-3.44c0.13-0.04,0.23-0.07,0.33-0.11c0.81,0.65,1.6,1.32,2.38,1.98
			c-1.03,0.1-2.14,0.34-2.36,0.47c-0.96,0.56-1.95,1.82-2.58,2.71c-1.99,2.79-3.02,6.29-3.54,9.63c-0.75,4.6-0.42,8.35,1.57,12.47
			c0.07,0.14,0.14,0.3,0.13,0.45c-0.83-0.38-1.66-0.77-2.49-1.16c-1.01-1.38-1.71-2.99-2.18-4.64c-0.59-2.11-0.83-4.31-1.07-6.49
			c-0.11-1.05-0.11-2.17,0.01-3.31C18.16,79.14,19.28,75.93,21.01,73.65z"/>
		<path d="M105.69,46.77c0.61-1.73,1.21-3.46,1.8-5.19c4.94-2.69,10.98-3.35,15.82-0.09c4.43,2.98,6.31,8.71,6.81,13.92
			c-1.04,1.12-2.08,2.22-3.11,3.32C125.2,48.88,115.11,43.16,105.69,46.77z"/>
		<path d="M133.44,57.84c1.13,0.18,2.23,0.57,3.23,1.12c2.03,1.11,3.66,2.92,4.43,5.12c1.03,2.97,1.15,6.13,0.53,9.2
			c-0.16,0.8-0.39,3.7-0.98,5.43c-0.3,0.22-0.61,0.45-0.91,0.66c-0.6,0.43-1.21,0.85-1.81,1.27c0-0.21,0.01-0.44,0.04-0.71
			c0.42-5.46-2.01-18.67-9.14-19.04c0.94-1,1.88-2.01,2.79-3.02C132.2,57.81,132.8,57.74,133.44,57.84z"/>
		<path d="M27.77,62.73c0.24-3.95,2.04-7.93,5.27-10.31c2.26-1.66,6.54-4.73,9.37-4.39c0.87,0.1,1.74,0.21,2.61,0.31
			c0.57,0.07,1.13,0.17,1.65,0.36c0.31,0.7,0.61,1.36,0.89,1.97c0.03,0.07,0.07,0.15,0.1,0.22c-1.64,0.33-3.39,1-4.62,1.35
			c-2.47,0.71-4.71,3.22-6.21,5.2c-3.18,4.2-4.97,9.64-4.65,14.91c-0.01-0.18-0.24-0.27-0.58-0.31c-0.58-0.47-1.15-0.95-1.73-1.41
			c-0.37-0.29-0.74-0.57-1.11-0.86c0.15-0.16,0-0.44-0.19-1.31C28.14,66.51,27.65,64.78,27.77,62.73z"/>
		<path d="M50.6,49.83c-0.31-0.09-0.65-0.12-1-0.13c-0.45-0.91-0.89-1.82-1.36-2.72c0.74-2.44,2.81-4.92,4.33-6.75
			c2.1-2.53,4.71-4.59,7.88-5.58c3.4-1.06,8.05-1.27,11.26,0.41c0.39,0.21,1.97,1.02,3.35,1.94c0.4,2.11,0.76,4.22,1.09,6.34
			c-1.64-0.49-3.42-1.25-4.13-1.33c-4.11-0.46-8.97-0.74-12.98,0.6C55.44,43.82,52.22,46.36,50.6,49.83z"/>
		<path d="M80.25,43.64c-0.18,0.19-0.48,0.26-0.85,0.27c-0.19-1.63-0.38-3.25-0.6-4.88c3.34-4.32,8.68-6.93,14.19-6.48
			c2.71,0.22,5.34,1.18,7.54,2.8c0.38,0.28,2.88,2.66,4.4,4.44c-0.68,2.1-1.37,4.2-2.07,6.3C97.65,39.02,86.93,36.61,80.25,43.64z"
			/>
	</g>
</g>
</svg>
